# xmcd CD database file
#
# Track frame offsets:
#	150
#	18435
#	37912
#	56200
#	86882
#
# Disc length: 4440 seconds
#
# Revision: 0
# Processed by: cddbd v1.5PL3 Copyright (c) Steve Scherf et al.
# Submitted via: CDex 1.50Beta6
#
DISCID=3a115605
DTITLE=安室奈美恵 - Put 'Em Up
DYEAR=2003
DGENRE=JPop
TTITLE0=Put 'Em Up
TTITLE1=exist for you
TTITLE2=Put 'Em Up (Instrumental)
TTITLE3=exist for you (Instrumental)
TTITLE4=CCCD
EXTD=YEAR: 2003
EXTT0=
EXTT1=
EXTT2=
EXTT3=
EXTT4=
PLAYORDER=
